<?xml version="1.0" encoding="utf-8"?>
<!-- Generator: Adobe Illustrator 13.0.0, SVG Export Plug-In . SVG Version: 6.00 Build 14948)  -->
<!DOCTYPE svg PUBLIC "-//W3C//DTD SVG 1.0//EN" "http://www.w3.org/TR/2001/REC-SVG-20010904/DTD/svg10.dtd">
<svg version="1.0"
	 id="svg2904" inkscape:output_extension="org.inkscape.output.svg.inkscape" xmlns:inkscape="http://www.inkscape.org/namespaces/inkscape" xmlns:sodipodi="http://sodipodi.sourceforge.net/DTD/sodipodi-0.dtd" xmlns:dc="http://purl.org/dc/elements/1.1/" xmlns:cc="http://creativecommons.org/ns#" xmlns:rdf="http://www.w3.org/1999/02/22-rdf-syntax-ns#" xmlns:svg="http://www.w3.org/2000/svg" sodipodi:version="0.32" sodipodi:docname="Nuvola_apps_important_blue.svg" inkscape:version="0.46"
	 xmlns="http://www.w3.org/2000/svg" xmlns:xlink="http://www.w3.org/1999/xlink" x="0px" y="0px" width="600px" height="500px"
	 viewBox="0 0 600 500" enable-background="new 0 0 600 500" xml:space="preserve">
<path id="path2935" fill-opacity="0.1786" d="M289.044,37.684L28.882,464.887c-4.992,8.16-4.992,18.24,0,26.4
	c4.896,8.063,14.112,13.151,24.097,13.151h520.322c9.889,0,19.104-5.088,24.097-13.151c4.896-8.16,4.896-18.24,0-26.4
	L337.236,37.684c-4.991-8.16-14.208-13.248-24.096-13.248S294.035,29.524,289.044,37.684z"/>
<linearGradient id="path2937_1_" gradientUnits="userSpaceOnUse" x1="10.4089" y1="91.6155" x2="88.1454" y2="180.5375" gradientTransform="matrix(4.5568 0 0 4.315 69.0131 -198.2307)">
	<stop  offset="0" style="stop-color:#F2B600"/>
	<stop  offset="1" style="stop-color:#F29600"/>
</linearGradient>
<path id="path2937" fill="url(#path2937_1_)" d="M277.586,30.036L17.425,457.238c-4.992,8.16-4.992,18.24,0,26.4
	c4.896,8.064,14.111,13.152,24.096,13.152h520.323c9.888,0,19.104-5.088,24.096-13.152c4.896-8.16,4.896-18.24,0-26.4
	L325.779,30.036c-4.992-8.16-14.208-13.248-24.097-13.248C291.794,16.788,282.578,21.876,277.586,30.036z"/>
<linearGradient id="path2939_1_" gradientUnits="userSpaceOnUse" x1="501.7913" y1="-56.2063" x2="145.7874" y2="219.1946" gradientTransform="matrix(0.96 0 0 -0.96 19.8205 458.0709)">
	<stop  offset="0" style="stop-color:#D88500"/>
	<stop  offset="1" style="stop-color:#FFCC33"/>
</linearGradient>
<path id="path2939" fill="url(#path2939_1_)" d="M301.682,38.772c-1.632,0-3.168,0.863-4.031,2.208L167.57,254.581L37.489,468.182
	c-0.863,1.344-0.863,3.072,0,4.416c0.864,1.344,2.4,2.208,4.032,2.208h520.323c1.632,0,3.168-0.864,4.031-2.208
	c0.864-1.344,0.864-3.072,0-4.416L305.714,40.98C304.85,39.635,303.314,38.772,301.682,38.772z"/>
<linearGradient id="path2941_1_" gradientUnits="userSpaceOnUse" x1="181.3738" y1="420.9011" x2="575.3376" y2="162.4">
	<stop  offset="0" style="stop-color:#FFD657"/>
	<stop  offset="1" style="stop-color:#F2B600"/>
</linearGradient>
<path id="path2941" fill="none" stroke="url(#path2941_1_)" stroke-width="11.52" stroke-linejoin="round" d="M301.646,38.772
	c-1.632,0-3.167,0.863-4.031,2.208L167.533,254.581L37.452,468.182c-0.863,1.344-0.863,3.072,0,4.416
	c0.864,1.344,2.4,2.208,4.032,2.208h520.323c1.632,0,3.168-0.864,4.032-2.208c0.863-1.344,0.863-3.072,0-4.416L305.678,40.98
	C304.814,39.635,303.279,38.772,301.646,38.772z"/>
<linearGradient id="path2943_1_" gradientUnits="userSpaceOnUse" x1="201.0725" y1="315.5457" x2="362.7682" y2="152.5403" gradientTransform="matrix(0.96 0 0 -0.96 19.8205 458.0709)">
	<stop  offset="0" style="stop-color:#FFF1C5"/>
	<stop  offset="1" style="stop-color:#FFCC33"/>
</linearGradient>
<path id="path2943" fill="url(#path2943_1_)" d="M301.751,46.466c-1.546,0.076-2.986,0.938-3.81,2.22L167.861,262.287l-18.12,29.76
	c44.134,26.493,95.772,41.76,150.961,41.76c55.972,0,108.307-15.677,152.851-42.87L306.011,48.685
	c-0.864-1.344-2.388-2.22-4.02-2.22C301.914,46.466,301.827,46.462,301.751,46.466z"/>
<radialGradient id="path2945_1_" cx="405.4778" cy="459.5173" r="179.5492" gradientTransform="matrix(1.142920e-008 1.5313 0.8765 2.165970e-005 -101.1345 -406.4635)" gradientUnits="userSpaceOnUse">
	<stop  offset="0" style="stop-color:#FFFFFF"/>
	<stop  offset="0.5" style="stop-color:#FFFFFF"/>
	<stop  offset="1" style="stop-color:#D5D5D5"/>
</radialGradient>
<path id="path2945" fill="url(#path2945_1_)" d="M288.435,152.724L131.281,410.678c-2.688,4.512-2.688,10.08,0,14.496
	c2.688,4.512,7.776,7.296,13.248,7.296h314.21c5.472,0,10.56-2.784,13.248-7.296c2.688-4.513,2.688-9.984,0-14.496L314.93,152.724
	c-2.688-4.512-7.775-7.296-13.248-7.296C296.21,145.428,291.122,148.213,288.435,152.724z"/>
<sodipodi:namedview  id="base" guidetolerance="10.0" inkscape:cx="278.84377" inkscape:zoom="0.94263361" showgrid="false" bordercolor="#666666" objecttolerance="10.0" inkscape:cy="226.01838" borderopacity="1.0" gridtolerance="10.0" pagecolor="#ffffff" inkscape:current-layer="g2562" inkscape:window-y="-9" inkscape:window-x="-9" inkscape:window-width="1440" inkscape:pageshadow="2" inkscape:pageopacity="0.0" inkscape:window-height="843">
	</sodipodi:namedview>
<defs>
	
	
		<inkscape:perspective  id="perspective30" inkscape:vp_z="600 : 250 : 1" inkscape:vp_y="0 : 1000 : 0" inkscape:vp_x="0 : 250 : 1" sodipodi:type="inkscape:persp3d" inkscape:persp3d-origin="300 : 166.66667 : 1">
		</inkscape:perspective>
	
		<inkscape:perspective  id="perspective2489" inkscape:vp_z="600 : 250 : 1" inkscape:vp_y="0 : 1000 : 0" inkscape:vp_x="0 : 250 : 1" sodipodi:type="inkscape:persp3d" inkscape:persp3d-origin="300 : 166.66667 : 1">
		</inkscape:perspective>
	
		<inkscape:perspective  id="perspective18" inkscape:vp_z="700 : 306.25 : 1" inkscape:vp_y="0 : 1000 : 0" inkscape:vp_x="0 : 306.25 : 1" sodipodi:type="inkscape:persp3d" inkscape:persp3d-origin="350 : 204.16667 : 1">
		</inkscape:perspective>
</defs>
<g id="g2689" transform="matrix(0.699457, 0, 0, 0.699457, 191.405, 211.379)">
	<path id="path633" d="M385.98,297.154l-245.615,0.316c-2.224-0.2-3.837-0.708-2.993-3.362l90.25-115.688
		c3.12-4.423,7.83-6.815,12.567-6.679l45.352-0.096c7.355-0.004,10.191,2.125,14.238,7.207l88.375,114.12
		C388.963,294.979,388.239,296.986,385.98,297.154z"/>
	<path id="rect613" fill="#000002" d="M125.665,49.226l35.181,18.466c5.479,2.876,7.761,10.037,5.099,15.995l-41.233,92.255
		c-2.664,5.959-9.265,8.458-14.744,5.582l-35.181-18.466c-5.48-2.876-7.763-10.037-5.1-15.995l41.235-92.255
		C113.584,48.849,120.185,46.35,125.665,49.226z"/>
	<path id="rect615" d="M71.647,46.625h81.178c5.197,0,9.41,3.583,9.41,8v16.5c0,4.419-4.214,8-9.41,8H71.647
		c-5.198,0-9.412-3.581-9.412-8v-16.5C62.235,50.207,66.449,46.625,71.647,46.625z"/>
	<path id="rect616" d="M26.867,118.678l35.457-66.826c2.27-4.279,6.379-5.715,9.177-3.206l10.45,9.367
		c2.798,2.509,3.227,8.011,0.956,12.291l-35.457,66.825c-2.27,4.279-6.379,5.716-9.177,3.207l-10.45-9.367
		C25.026,128.46,24.597,122.958,26.867,118.678z"/>
	<path id="rect617" d="M59.08,125.656l210.061,110.75c13.451,7.091,23.609,14.378,22.689,16.274l-3.439,7.083
		c-0.92,1.896-12.57-2.316-26.02-9.407L52.31,139.606c-13.451-7.091-23.609-14.378-22.689-16.274l3.439-7.083
		C33.979,114.353,45.629,118.564,59.08,125.656z"/>
	<path id="rect618" d="M154.473,179.08l-6.267-109.371c-0.401-7.003,2.244-12.909,5.907-13.192l13.682-1.056
		c3.665-0.283,6.96,5.166,7.361,12.169l6.267,109.369c0.401,7.003-2.244,12.909-5.907,13.192l-13.682,1.055
		C158.169,191.531,154.874,186.083,154.473,179.08z"/>
	
		<ellipse id="path619" sodipodi:cx="418.75" sodipodi:cy="467.36218" sodipodi:rx="31.25" sodipodi:ry="32.5" cx="181.428" cy="31.625" rx="29.924" ry="31.616">
	</ellipse>
	<path id="rect621" d="M101.8,228.479l-14.83-61.612c-0.949-3.946,1.674-7.725,5.86-8.441l15.63-2.678
		c4.186-0.716,8.349,1.9,9.299,5.846l14.829,61.612c0.949,3.946-1.673,7.725-5.858,8.441l-15.632,2.678
		C106.911,235.042,102.749,232.424,101.8,228.479z"/>
	<path id="rect622" d="M102.249,288.088l-0.482-63.512c-0.031-4.066,3.379-7.098,7.613-6.771l15.816,1.222
		c4.236,0.327,7.694,3.888,7.725,7.955l0.48,63.51c0.031,4.067-3.377,7.098-7.612,6.771l-15.817-1.22
		C105.738,295.717,102.28,292.154,102.249,288.088z"/>
	<path id="rect623" d="M3.303,267.255l62.931-110.552c4.029-7.079,10.177-10.791,13.73-8.292l13.268,9.335
		c3.552,2.499,3.165,10.265-0.864,17.343L29.436,285.641c-4.029,7.079-10.177,10.791-13.729,8.292L2.44,284.598
		C-1.113,282.099-0.727,274.333,3.303,267.255z"/>
</g>
</svg>
